<svg width="48" height="48" viewBox="0 0 48 48" fill="none" xmlns="http://www.w3.org/2000/svg" role="img" aria-label="Vision in Action Cameroon">
  <defs>
    <linearGradient id="viaMark" x1="0" y1="0" x2="48" y2="48" gradientUnits="userSpaceOnUse">
      <stop offset="0" stop-color="#2A9CE0"/>
      <stop offset="1" stop-color="#1B7FC4"/>
    </linearGradient>
  </defs>
  <rect width="48" height="48" rx="12" fill="url(#viaMark)"/>
  <!-- Stylised Africa silhouette -->
  <path d="M25.4 9.5c2.3-.2 4.3.6 6.1 1.8 1.3.9 1.3 2.6.7 4-.6 1.5-.1 3 .7 4.4.9 1.7-.1 3.4-1 4.9-1 1.7-2 3.4-2.7 5.3-.7 1.7-.6 3.7-2 5-1.4 1.2-2.7-.4-3.5-1.7-1-1.6-2.4-2.9-3.3-4.6-1.3-2.3-1.9-4.9-1.8-7.5.1-1.6-.4-3.4.8-4.7 1-1.1.7-2.7 1.6-3.9 1-1.3 2.3-2.5 4.4-2.7z" fill="#F1A52A"/>
  <!-- Pulse line -->
  <path d="M11 33h7l2.4-5 3.2 9 3-12 2.6 8 2.8-3H37" stroke="#FFFFFF" stroke-width="2" stroke-linecap="round" stroke-linejoin="round" fill="none" opacity="0.95"/>
</svg>
