<svg width="340" height="92" viewBox="0 0 340 92" fill="none" xmlns="http://www.w3.org/2000/svg" role="img" aria-label="Vision in Action Cameroon">
  <defs>
    <linearGradient id="viaMarkF" x1="0" y1="0" x2="64" y2="64" gradientUnits="userSpaceOnUse">
      <stop offset="0" stop-color="#2A9CE0"/>
      <stop offset="1" stop-color="#1B7FC4"/>
    </linearGradient>
  </defs>
  <!-- Mark -->
  <rect x="2" y="14" width="64" height="64" rx="16" fill="url(#viaMarkF)"/>
  <path d="M36 27c3-.3 5.7.8 8.1 2.4 1.7 1.2 1.7 3.5.9 5.3-.8 2-.1 4 .9 5.9 1.2 2.3-.1 4.5-1.3 6.5-1.3 2.3-2.7 4.5-3.6 7-.9 2.3-.8 4.9-2.7 6.7-1.9 1.6-3.6-.5-4.7-2.3-1.3-2.1-3.2-3.9-4.4-6.1-1.7-3.1-2.5-6.5-2.4-10 .1-2.1-.5-4.5 1.1-6.3 1.3-1.5.9-3.6 2.1-5.2 1.3-1.7 3.1-3.3 5.9-3.6z" fill="#F1A52A"/>
  <path d="M16 47h9l3.2-6.7 4.3 12 4-16 3.5 10.7 3.7-4H52" stroke="#FFFFFF" stroke-width="2.4" stroke-linecap="round" stroke-linejoin="round" fill="none"/>
  <!-- Wordmark -->
  <text x="82" y="44" font-family="'Space Grotesk','Inter',sans-serif" font-size="27" font-weight="700" letter-spacing="0.5" fill="#2A9CE0">VISION IN ACTION</text>
  <text x="82" y="68" font-family="'Inter',sans-serif" font-size="15.5" font-weight="700" letter-spacing="5.5" fill="#C9881E">CAMEROON</text>
</svg>
